<?xml version="1.0" standalone="no"?>
<!DOCTYPE svg PUBLIC "-//W3C//DTD SVG 20010904//EN"
 "http://www.w3.org/TR/2001/REC-SVG-20010904/DTD/svg10.dtd">
<svg version="1.0" xmlns="http://www.w3.org/2000/svg"
 width="5136.000000pt" height="5136.000000pt" viewBox="0 0 5136.000000 5136.000000"
 preserveAspectRatio="xMidYMid meet">

<g transform="translate(0.000000,5136.000000) scale(0.100000,-0.100000)"
fill="#000000" stroke="none">
<path d="M14895 36850 c-93 -14 -126 -21 -155 -33 -8 -4 -54 -20 -102 -37 -92
-32 -202 -86 -253 -126 -18 -13 -34 -21 -37 -18 -14 13 -174 -144 -211 -206
-33 -57 -88 -222 -103 -310 -3 -14 -9 -49 -14 -79 -23 -129 -6 -283 41 -373
37 -70 118 -180 167 -226 85 -79 236 -193 348 -262 54 -33 106 -65 114 -70 8
-6 33 -18 55 -27 153 -68 276 -133 470 -248 162 -96 337 -310 353 -429 2 -23
8 -45 12 -51 4 -5 8 -53 9 -105 5 -297 -119 -505 -379 -634 -104 -52 -107 -53
-244 -71 -133 -18 -208 -19 -276 -3 -41 9 -48 14 -34 20 13 6 9 7 -13 4 -36
-6 -98 15 -86 29 5 4 -1 5 -11 1 -11 -4 -22 -3 -25 1 -3 4 -33 26 -66 48 -33
22 -78 58 -100 80 -22 22 -70 65 -105 94 -36 30 -83 73 -105 94 -22 21 -64 52
-94 68 -54 28 -55 28 -68 9 -8 -11 -11 -25 -8 -30 4 -6 3 -16 -2 -23 -5 -7 -8
-18 -7 -24 1 -7 2 -20 3 -29 1 -22 135 -159 246 -252 51 -43 117 -88 155 -105
112 -51 132 -59 144 -61 6 -1 27 -9 46 -17 69 -30 226 -52 318 -46 98 7 219
30 266 52 17 7 51 19 75 25 24 6 51 15 60 20 72 37 171 80 184 80 9 0 17 5 17
10 0 6 5 10 10 10 31 0 177 133 247 225 58 76 153 248 153 277 0 9 5 20 10 23
6 4 8 10 6 14 -3 4 6 38 20 76 21 58 25 87 25 173 0 58 -4 110 -9 116 -5 6
-14 31 -21 56 -7 25 -20 61 -29 80 -9 19 -17 40 -18 47 -4 23 -86 135 -147
200 -53 56 -206 183 -221 183 -2 0 -40 23 -83 52 -78 52 -314 174 -385 199
-21 7 -38 17 -38 21 0 4 -6 8 -13 8 -8 0 -36 11 -63 25 -27 14 -53 25 -57 25
-20 0 -170 81 -230 124 -171 122 -244 216 -285 366 -18 67 -17 192 2 272 24
102 117 270 196 356 39 42 152 118 199 133 20 6 41 15 46 19 13 10 127 38 185
45 63 9 139 7 179 -5 19 -5 37 -7 41 -5 4 3 13 -2 20 -10 7 -8 17 -15 22 -15
6 0 42 -15 82 -33 47 -23 96 -58 147 -105 42 -40 79 -72 82 -72 3 0 19 -13 37
-30 17 -16 45 -36 61 -44 27 -14 33 -14 54 0 19 13 22 20 15 49 -4 19 -6 35
-3 35 9 0 -69 92 -112 134 -22 21 -58 50 -80 64 -22 15 -42 30 -45 34 -10 12
-164 88 -180 88 -9 0 -20 4 -25 9 -6 5 -48 18 -95 29 -88 21 -197 25 -285 12z
m370 -150 c3 -5 1 -10 -4 -10 -6 0 -11 5 -11 10 0 6 2 10 4 10 3 0 8 -4 11
-10z m-1140 -2796 c24 -37 13 -39 -20 -4 -21 22 -24 30 -13 30 9 0 23 -12 33
-26z"/>
<path d="M16745 36840 c-72 -4 -140 -12 -151 -18 -15 -8 -21 -22 -22 -49 -2
-47 3 -54 53 -79 37 -17 70 -19 412 -24 204 -3 375 -9 380 -13 4 -5 10 -714
13 -1576 5 -1446 6 -1569 22 -1593 21 -32 93 -57 134 -46 16 4 34 6 41 4 6 -3
13 0 16 7 2 6 17 12 33 12 44 1 82 32 94 75 6 24 10 579 10 1586 0 852 0 1555
0 1562 0 6 5 12 10 12 5 0 9 -5 7 -11 -2 -13 176 -13 564 0 184 5 220 9 243
25 26 17 28 21 21 64 -4 26 -11 52 -16 57 -12 12 -1656 16 -1864 5z"/>
<path d="M19561 36830 c-66 -33 -63 0 -60 -769 2 -383 3 -912 1 -1176 -1 -264
2 -528 7 -586 19 -209 106 -393 261 -549 52 -52 94 -99 92 -103 -1 -5 1 -6 6
-3 5 3 19 -2 31 -11 18 -12 20 -17 10 -24 -10 -6 -7 -10 11 -17 14 -5 29 -10
34 -10 5 0 12 -5 15 -10 3 -5 38 -22 76 -36 39 -15 77 -31 85 -35 53 -28 395
-88 517 -90 167 -3 491 41 508 70 4 5 15 9 26 9 10 0 19 5 19 10 0 6 7 10 15
10 14 0 53 18 65 30 3 3 21 14 40 24 19 11 44 24 54 30 61 34 179 148 240 231
76 103 131 224 150 328 29 154 36 458 27 1082 -5 325 -6 807 -3 1073 4 358 2
482 -7 482 -6 0 -11 7 -11 15 0 8 -6 12 -13 9 -8 -3 -20 2 -27 11 -16 19 -59
19 -85 -1 -20 -15 -20 -24 -15 -442 8 -723 2 -1905 -11 -2032 -6 -63 -20 -142
-31 -175 -65 -196 -374 -485 -588 -550 -3 -1 -23 -7 -45 -13 -22 -7 -117 -17
-211 -24 l-171 -12 -112 37 c-62 21 -129 46 -151 57 -64 33 -193 135 -262 209
-57 60 -138 177 -138 200 0 4 -9 26 -21 50 -71 148 -79 306 -79 1593 0 561 -4
1027 -9 1040 -5 13 -8 26 -7 29 2 14 -38 50 -51 45 -7 -3 -15 -1 -18 4 -9 15
-128 8 -164 -10z m146 4 c-3 -3 -12 -4 -19 -1 -8 3 -5 6 6 6 11 1 17 -2 13 -5z"/>
<path d="M22845 36830 c-121 -4 -220 -7 -220 -8 0 -986 3 -3031 5 -3092 5
-150 15 -202 47 -228 18 -16 24 -26 16 -29 -7 -2 -13 -9 -13 -15 0 -6 6 -5 15
2 15 12 148 15 220 5 17 -3 176 -7 355 -11 295 -5 336 -4 451 14 233 37 482
139 658 270 92 69 215 221 314 387 59 99 185 361 192 398 4 20 11 40 16 43 5
3 7 9 5 13 -3 4 8 59 23 122 49 196 49 196 51 409 1 177 -21 376 -59 525 -12
44 -21 85 -21 92 0 6 -5 24 -12 40 -6 15 -12 34 -14 40 -1 7 -25 59 -53 115
-51 103 -86 168 -177 327 -33 59 -165 235 -203 271 -62 60 -163 127 -257 170
-139 64 -147 67 -184 75 -19 4 -39 11 -45 15 -5 5 -48 19 -95 32 -82 22 -99
23 -440 23 -195 0 -454 -2 -575 -5z m897 -153 c104 -29 127 -39 233 -112 242
-165 385 -321 482 -525 68 -144 67 -140 93 -230 12 -41 28 -93 35 -115 18 -54
33 -122 50 -230 20 -129 14 -593 -9 -690 -9 -38 -18 -81 -21 -95 -7 -40 -82
-267 -98 -297 -8 -15 -33 -66 -56 -113 -78 -162 -268 -384 -429 -503 -76 -57
-156 -105 -187 -114 -173 -48 -211 -55 -330 -61 -134 -8 -437 3 -490 17 l-30
7 3 1450 c1 803 -2 1480 -7 1519 -4 39 -7 71 -6 73 6 7 61 15 185 28 74 7 142
16 150 18 8 3 87 3 175 2 136 -2 175 -7 257 -29z"/>
<path d="M25864 36829 c-70 -16 -91 -44 -99 -130 -3 -41 -5 -771 -3 -1623 l3
-1548 33 -28 c34 -28 108 -54 124 -44 5 3 15 0 23 -6 8 -7 15 -9 15 -4 0 5 15
10 33 11 17 1 44 6 60 12 26 10 27 14 28 78 4 505 -5 3136 -11 3188 -5 39 -10
73 -10 77 0 11 -72 28 -115 27 -22 -1 -59 -5 -81 -10z"/>
<path d="M28165 36833 c-52 -6 -148 -25 -198 -39 -26 -7 -51 -14 -55 -15 -8
-2 -42 -15 -79 -31 -16 -6 -30 -12 -33 -13 -3 0 -45 -21 -93 -45 -48 -25 -97
-49 -107 -55 -11 -5 -20 -13 -20 -17 0 -5 -7 -8 -15 -8 -28 0 -180 -162 -286
-305 -57 -78 -110 -151 -118 -165 -7 -13 -25 -44 -38 -69 -14 -25 -29 -50 -33
-56 -17 -24 -102 -241 -126 -322 -71 -239 -85 -388 -64 -675 12 -174 24 -252
55 -363 38 -136 57 -201 65 -220 5 -11 14 -38 21 -60 6 -22 15 -44 19 -50 4
-5 17 -37 30 -70 69 -177 190 -365 320 -496 82 -83 204 -179 226 -179 4 0 15
-6 23 -13 9 -7 43 -23 76 -36 33 -12 69 -27 80 -31 11 -5 38 -14 60 -20 22 -6
47 -14 55 -18 8 -3 22 -6 30 -8 8 -1 51 -7 95 -14 44 -6 104 -15 133 -19 68
-10 281 -4 352 10 103 20 214 62 376 141 54 26 215 147 282 212 70 67 248 303
291 386 19 36 38 72 42 80 5 8 20 42 34 75 15 33 31 69 35 80 41 91 58 170 91
405 34 252 16 598 -46 858 -9 37 -21 88 -27 115 -7 26 -15 47 -20 47 -4 0 -7
3 -6 8 11 52 -177 369 -310 518 -117 133 -216 227 -295 282 -73 50 -233 132
-259 132 -7 0 -25 6 -40 14 -26 14 -69 26 -118 32 -14 2 -43 7 -65 10 -49 7
-298 12 -340 7z m245 -139 c137 -24 299 -125 469 -288 69 -67 231 -263 231
-280 0 -2 20 -39 45 -80 25 -42 45 -79 45 -82 0 -3 6 -20 14 -37 13 -30 27
-66 31 -77 27 -91 49 -164 60 -196 7 -22 16 -58 19 -80 4 -21 11 -64 17 -94
22 -116 19 -603 -5 -720 -44 -220 -106 -436 -162 -557 -90 -197 -314 -437
-505 -539 -30 -16 -57 -33 -60 -37 -3 -5 -9 -8 -13 -8 -3 1 -22 -5 -41 -13
-19 -8 -47 -17 -62 -20 -15 -3 -39 -8 -53 -11 -75 -19 -350 1 -366 26 -3 5
-11 9 -19 9 -54 0 -267 132 -350 216 -192 196 -364 528 -430 834 -35 165 -39
210 -39 475 0 257 2 293 34 460 62 327 263 660 545 901 107 93 264 165 424
197 63 13 104 13 171 1z"/>
<path d="M12775 36515 c-267 -16 -568 -40 -810 -66 -104 -11 -239 -25 -300
-31 -60 -6 -114 -15 -120 -20 -6 -5 14 -7 50 -4 l60 5 -70 -14 c-38 -7 -110
-15 -160 -16 -79 -2 -84 -3 -40 -9 28 -4 45 -8 38 -8 -129 -18 -176 -26 -218
-38 -59 -16 -335 -64 -374 -64 -14 0 -36 -7 -48 -15 -12 -9 -26 -14 -30 -13
-4 1 -19 -3 -33 -9 -41 -18 -123 -42 -171 -49 -24 -4 -48 -10 -54 -14 -5 -4
-23 -10 -40 -14 -92 -21 -110 -28 -91 -35 15 -6 8 -12 -35 -29 -30 -12 -83
-29 -119 -37 -86 -19 -126 -30 -180 -49 -25 -9 -88 -30 -140 -47 -52 -17 -108
-36 -125 -43 -16 -8 -64 -26 -105 -41 -41 -16 -86 -34 -100 -42 -14 -7 -28
-13 -32 -13 -4 0 -38 -14 -75 -31 -37 -17 -90 -42 -118 -54 -27 -13 -121 -57
-207 -99 -86 -42 -159 -76 -161 -76 -3 0 -58 -25 -123 -56 -66 -31 -121 -57
-124 -57 -3 0 -34 -18 -70 -40 -36 -22 -94 -56 -130 -75 -36 -19 -102 -57
-148 -84 -45 -26 -85 -48 -87 -48 -15 0 -438 -265 -588 -369 -21 -14 -53 -35
-71 -46 -107 -65 -444 -324 -541 -415 -22 -21 -72 -62 -111 -92 -188 -142
-274 -210 -334 -263 -270 -240 -594 -560 -735 -725 -50 -58 -144 -164 -210
-235 -66 -72 -147 -166 -180 -210 -33 -43 -78 -101 -101 -129 -22 -29 -49 -65
-59 -81 -30 -47 -188 -269 -202 -283 -7 -8 -18 -22 -23 -32 -10 -18 -110 -163
-129 -186 -15 -19 -114 -170 -160 -246 -25 -40 -68 -109 -96 -153 -29 -44 -58
-92 -66 -107 -113 -224 -155 -304 -160 -308 -3 -3 -12 -22 -20 -42 -7 -21 -17
-38 -21 -38 -4 0 -8 -4 -8 -10 0 -5 -12 -35 -27 -67 -15 -32 -28 -62 -28 -68
0 -5 -2 -12 -5 -15 -9 -9 -85 -165 -85 -175 0 -5 -6 -14 -12 -18 -7 -4 -13
-19 -13 -32 0 -14 -4 -25 -10 -25 -5 0 -10 -6 -10 -13 0 -8 -11 -36 -25 -63
-14 -27 -25 -53 -25 -58 0 -4 -20 -49 -44 -100 -24 -50 -47 -106 -51 -123 -3
-18 -10 -33 -14 -33 -9 0 -31 -58 -27 -73 1 -7 1 -9 -1 -4 -9 14 -23 7 -23
-12 0 -11 -5 -23 -10 -26 -6 -4 -10 -14 -8 -23 1 -10 -5 -32 -14 -49 -9 -18
-19 -46 -23 -63 -4 -16 -11 -30 -16 -30 -5 0 -9 -11 -9 -24 0 -13 -5 -26 -11
-28 -6 -2 -12 -16 -12 -31 -1 -15 -5 -27 -8 -27 -8 0 -31 -116 -30 -148 0 -13
-3 -21 -8 -18 -5 3 -14 -20 -20 -52 -6 -31 -23 -81 -36 -111 -14 -30 -23 -63
-20 -75 3 -12 2 -15 -1 -8 -10 22 -36 -39 -29 -66 5 -19 3 -23 -8 -19 -20 7
-44 -93 -25 -105 10 -6 9 -8 -3 -8 -17 0 -41 -79 -54 -175 -3 -22 -12 -65 -21
-95 -8 -30 -16 -59 -17 -65 -2 -5 -5 -14 -9 -20 -5 -9 -13 -42 -39 -175 -4
-25 -16 -97 -24 -160 -9 -63 -20 -131 -25 -150 -5 -19 -16 -102 -25 -185 -8
-82 -19 -172 -24 -200 -6 -27 -11 -81 -12 -120 -1 -51 -3 -62 -8 -40 -6 24 -9
15 -14 -45 -4 -41 -8 -100 -8 -130 -1 -84 -7 -107 -32 -114 -12 -3 -429 -8
-927 -12 -498 -4 -909 -10 -914 -15 -6 -5 -11 -209 -14 -491 -2 -266 -5 -485
-8 -487 -2 -2 -4 -8 -4 -12 0 -5 405 -10 899 -11 495 -2 903 -7 908 -11 9 -10
10 -146 3 -887 -3 -352 -6 -464 -10 -355 -5 140 -2 -6289 3 -6840 1 -115 -1
-331 -4 -480 -4 -148 -4 -250 -1 -225 l6 45 5 -49 c5 -44 9 -50 35 -57 40 -11
1009 -16 1072 -6 l51 8 1 4417 c1 2769 5 4419 11 4425 6 6 528 11 1363 13 744
3 1449 7 1566 10 l212 6 -2 502 -3 501 -1557 -4 c-943 -3 -1558 -1 -1558 5 0
5 5 25 10 44 6 19 15 94 20 165 6 72 14 155 20 185 5 30 12 69 14 85 7 45 34
192 47 260 24 126 158 672 177 725 3 8 7 20 8 25 1 6 3 12 4 15 1 3 8 30 15
60 19 80 54 202 65 225 5 11 21 51 36 90 27 75 59 150 74 177 6 10 10 23 10
29 0 6 6 25 14 42 7 18 21 50 30 72 10 22 21 49 26 60 5 11 19 52 32 90 13 39
28 75 34 82 6 6 17 32 24 57 7 26 17 49 21 52 5 3 9 14 9 25 0 10 5 19 10 19
6 0 10 5 10 11 0 20 248 515 264 528 9 7 13 17 11 22 -5 7 10 37 52 104 7 11
35 58 63 105 28 47 55 92 60 100 5 8 21 40 36 70 15 30 30 57 33 60 4 3 33 48
66 100 32 52 82 127 110 165 28 39 78 111 111 160 32 50 64 96 71 103 6 6 43
54 81 105 59 77 128 163 220 272 9 11 35 43 57 70 152 191 357 405 756 790
184 178 459 423 547 487 31 23 110 81 174 130 64 48 121 88 127 88 6 0 11 4
11 8 0 4 15 16 33 27 17 10 57 38 87 61 45 33 179 121 285 187 11 7 44 27 75
46 30 19 78 46 105 60 28 13 52 28 55 31 3 4 38 27 78 51 40 24 85 52 100 61
15 9 43 25 62 35 19 9 37 20 40 23 3 3 48 27 100 53 52 26 122 63 155 82 113
64 464 235 483 235 9 0 60 22 94 41 10 5 23 9 30 9 7 0 25 6 40 14 15 8 42 17
60 21 18 4 38 11 43 15 10 7 118 46 313 114 186 65 288 98 382 122 52 14 121
34 154 45 32 11 77 24 100 29 22 5 91 20 151 34 61 14 164 36 230 50 66 15
158 37 205 50 47 14 110 27 140 31 53 6 177 22 485 65 182 25 374 38 685 46
l235 7 4 544 4 543 -94 -1 c-52 -1 -188 -8 -304 -14z m-8932 -6930 c-3 -9 -8
-14 -10 -11 -3 3 -2 9 2 15 9 16 15 13 8 -4z m-33 -116 c0 -5 -4 -9 -10 -9 -5
0 -10 7 -10 16 0 8 5 12 10 9 6 -3 10 -10 10 -16z m-24 -105 c-9 -28 -12 -31
-14 -14 -4 26 4 50 16 50 5 0 4 -16 -2 -36z m-2017 -2630 c2 -2 -28 -4 -67 -4
-43 0 -72 4 -72 10 0 10 128 4 139 -6z m669 9 c-10 -2 -26 -2 -35 0 -10 3 -2
5 17 5 19 0 27 -2 18 -5z m950 -7 c3 -4 -20 -6 -51 -6 -31 0 -57 4 -57 9 0 9
98 6 108 -3z m1327 4 c23 -6 12 -8 -42 -9 -39 0 -75 4 -78 9 -7 12 74 12 120
0z m-1308 -3417 c-3 -10 -5 -2 -5 17 0 19 2 27 5 18 2 -10 2 -26 0 -35z m0
-5335 c-3 -8 -6 -5 -6 6 -1 11 2 17 5 13 3 -3 4 -12 1 -19z"/>
<path d="M10280 36090 l-35 -7 42 -2 c23 0 45 4 48 9 7 11 -3 11 -55 0z"/>
<path d="M3855 29730 c-3 -5 -1 -10 4 -10 6 0 11 5 11 10 0 6 -2 10 -4 10 -3
0 -8 -4 -11 -10z"/>
<path d="M36606 29690 c-223 -36 -393 -126 -556 -297 -50 -52 -90 -99 -90
-105 0 -6 -6 -19 -14 -27 -17 -21 -56 -134 -56 -165 0 -14 -4 -35 -9 -48 -30
-80 -15 -538 20 -573 5 -5 9 -16 9 -25 0 -24 64 -142 95 -176 5 -6 23 -28 39
-48 51 -65 215 -190 276 -211 3 -1 19 -8 35 -15 57 -25 148 -47 233 -55 148
-14 399 7 478 41 155 65 250 136 351 261 58 72 136 212 149 268 4 17 10 35 15
41 28 36 49 301 29 374 -5 19 -11 46 -13 60 -3 14 -12 49 -21 79 -8 29 -13 57
-10 62 3 5 0 9 -5 9 -6 0 -11 9 -11 20 0 10 -6 23 -14 27 -7 4 -18 19 -25 33
-11 24 -11 24 3 6 9 -11 16 -16 16 -10 0 5 -12 22 -26 37 -14 16 -24 31 -21
34 7 6 -3 19 -80 99 -34 35 -56 62 -50 58 16 -8 -46 47 -73 66 -12 8 -39 26
-59 40 -68 49 -186 98 -307 129 -59 16 -238 22 -308 11z"/>
<path d="M13350 28634 c-222 -9 -460 -32 -660 -64 -36 -6 -87 -13 -115 -16
-41 -4 -131 -22 -250 -49 -63 -14 -191 -55 -445 -139 -269 -90 -301 -103 -570
-239 -330 -167 -422 -215 -505 -264 -33 -19 -80 -47 -105 -60 -133 -75 -298
-195 -545 -399 -267 -220 -368 -319 -501 -487 -38 -49 -87 -110 -109 -137
-159 -192 -353 -439 -382 -487 -98 -162 -164 -274 -180 -303 -10 -19 -54 -94
-97 -167 -43 -72 -78 -135 -79 -140 0 -4 -10 -24 -22 -43 -11 -19 -32 -60 -44
-90 -13 -30 -31 -73 -41 -95 -10 -22 -26 -65 -36 -95 -11 -30 -22 -57 -25 -60
-4 -3 -14 -25 -22 -50 -110 -319 -162 -479 -171 -520 -2 -14 -11 -47 -20 -75
-12 -41 -46 -198 -60 -280 -1 -11 -6 -27 -9 -35 -9 -24 -26 -111 -31 -160 -3
-25 -12 -85 -20 -135 -8 -49 -18 -124 -22 -165 -11 -101 -12 -1090 -2 -1260
15 -267 28 -416 37 -445 6 -16 22 -106 36 -200 28 -187 35 -224 60 -305 9 -30
17 -61 17 -67 1 -7 5 -13 10 -13 5 0 8 -6 7 -12 -4 -22 13 -120 26 -152 13
-30 13 -30 17 -6 4 25 4 25 17 -5 7 -16 9 -40 6 -53 -4 -17 -2 -22 6 -16 8 5
10 2 7 -8 -7 -16 19 -139 30 -148 4 -3 16 -30 26 -60 18 -52 28 -76 75 -182
10 -24 29 -71 41 -105 13 -35 27 -63 32 -63 5 0 7 -4 3 -10 -3 -5 -2 -17 4
-27 5 -10 31 -63 57 -118 41 -86 148 -286 179 -336 5 -9 19 -32 29 -50 18 -33
139 -213 261 -389 100 -145 153 -211 264 -330 59 -63 139 -151 178 -195 95
-109 338 -343 449 -435 171 -142 222 -182 242 -194 11 -6 59 -37 106 -68 47
-32 88 -58 91 -58 6 0 16 -7 107 -68 25 -18 49 -32 53 -32 3 0 33 -18 67 -40
33 -23 78 -50 99 -60 22 -11 58 -30 82 -41 36 -19 80 -44 163 -96 46 -29 173
-86 192 -86 6 0 12 -4 12 -8 0 -11 101 -55 118 -51 6 2 12 -1 12 -6 0 -6 17
-13 37 -17 21 -4 49 -15 64 -26 15 -10 34 -19 41 -19 8 0 18 -3 22 -7 3 -4 13
-8 21 -10 51 -10 160 -45 171 -55 7 -5 16 -8 20 -7 5 1 16 0 24 -3 8 -3 69
-22 135 -42 66 -21 136 -44 155 -51 41 -15 240 -64 286 -70 17 -3 69 -13 115
-24 46 -11 87 -18 90 -15 4 2 9 0 11 -5 1 -6 30 -11 63 -12 33 -1 74 -6 90
-11 49 -14 625 -48 820 -48 207 0 597 23 765 45 107 14 173 25 470 77 130 22
450 97 465 108 6 4 39 16 75 25 36 10 70 21 75 25 6 4 24 10 40 14 26 6 56 17
160 56 44 17 101 41 117 50 10 6 23 10 29 10 27 0 525 245 630 310 44 27 83
50 85 50 5 0 292 179 309 192 6 5 51 38 100 74 50 37 92 69 95 73 3 4 48 42
100 86 52 44 97 82 100 85 3 3 39 32 80 64 95 75 384 366 470 471 35 44 67 82
70 85 29 24 270 337 270 351 0 10 -10 24 -22 30 -13 7 -54 38 -93 69 -38 31
-101 81 -140 110 -38 30 -131 102 -205 160 -124 97 -207 159 -248 185 -16 10
-29 20 -56 42 -22 19 -55 2 -96 -48 -315 -389 -584 -657 -870 -864 -52 -38
-127 -93 -167 -122 -39 -29 -104 -75 -145 -101 -68 -46 -98 -63 -245 -143 -32
-18 -62 -35 -68 -39 -5 -4 -28 -14 -50 -22 -22 -9 -69 -30 -105 -46 -36 -17
-99 -45 -140 -62 -41 -17 -93 -40 -115 -49 -22 -10 -71 -28 -110 -41 -38 -12
-74 -25 -80 -29 -5 -3 -17 -7 -25 -8 -8 -1 -69 -20 -135 -42 -392 -129 -811
-186 -1360 -186 -432 0 -684 28 -1023 111 -420 103 -834 270 -1147 463 -60 37
-121 74 -135 82 -37 21 -299 208 -334 238 -17 14 -55 49 -86 76 -30 28 -77 70
-105 94 -118 104 -167 154 -431 440 -86 93 -164 185 -164 194 0 4 -24 40 -54
80 -70 93 -180 274 -284 467 -19 36 -38 70 -42 75 -20 26 -131 258 -154 325
-15 41 -33 88 -41 105 -29 61 -105 304 -140 443 -35 140 -67 302 -80 412 -4
30 -13 82 -21 115 -21 94 -24 120 -29 217 -2 50 -7 93 -10 96 -12 12 -3 21 28
27 17 3 2129 7 4692 8 l4660 2 -2 370 c-3 391 -14 636 -39 850 -14 122 -24
173 -60 320 -15 62 -20 85 -30 145 -7 42 -40 161 -60 213 -8 20 -13 41 -12 45
0 4 -1 14 -4 22 -3 8 -13 42 -23 75 -9 33 -21 71 -25 85 -5 14 -20 71 -34 127
-14 56 -37 135 -52 175 -14 40 -32 93 -40 118 -8 25 -28 74 -45 110 -18 36
-37 79 -44 95 -7 17 -27 62 -45 100 -18 39 -38 84 -45 100 -33 76 -135 278
-152 300 -4 6 -19 33 -33 60 -47 94 -232 375 -252 383 -4 2 -8 9 -8 15 0 6
-11 22 -24 36 -14 15 -53 63 -88 108 -168 217 -281 346 -488 554 -153 154
-254 246 -315 289 -49 35 -118 86 -152 114 -133 110 -480 346 -509 346 -8 0
-14 4 -14 8 0 10 -549 284 -725 362 -83 37 -139 60 -147 60 -6 0 -24 6 -41 14
-30 14 -103 36 -247 76 -259 71 -672 143 -975 170 -127 11 -572 20 -715 14z
m814 -1064 c271 -40 394 -65 479 -99 15 -6 31 -10 35 -9 4 1 14 -1 22 -4 8 -4
36 -12 62 -18 26 -7 53 -19 59 -26 6 -8 28 -15 48 -15 20 -1 28 -3 19 -6 -33
-8 -18 -21 37 -34 31 -7 58 -16 61 -21 3 -4 20 -8 39 -8 19 0 36 -4 39 -9 4
-5 24 -12 46 -16 22 -4 38 -10 35 -15 -6 -9 44 -24 53 -16 3 3 11 -3 19 -14 7
-10 20 -17 27 -14 12 5 89 -31 121 -56 6 -4 46 -27 90 -50 44 -23 118 -68 165
-99 47 -31 90 -58 95 -61 78 -40 336 -237 471 -360 146 -132 260 -238 303
-282 111 -112 256 -291 330 -408 30 -47 63 -92 73 -101 10 -9 18 -19 18 -22 0
-3 17 -32 39 -64 21 -32 59 -96 85 -143 26 -47 51 -92 55 -100 5 -8 21 -40 35
-70 14 -30 42 -82 61 -115 19 -33 35 -68 35 -77 0 -10 5 -18 11 -18 6 0 8 -9
4 -20 -4 -13 -2 -20 5 -18 7 2 14 -4 15 -12 4 -19 63 -189 75 -215 28 -63 114
-325 134 -410 12 -53 14 -56 16 -25 1 33 2 32 16 -20 9 -30 16 -70 16 -87 0
-18 4 -31 8 -28 5 3 9 -3 8 -12 0 -10 7 -52 17 -93 42 -188 87 -502 74 -514
-2 -2 -119 -9 -259 -17 -200 -10 -1089 -14 -4093 -16 l-3837 -4 6 43 c4 24 19
113 35 198 29 158 34 181 50 260 5 25 16 83 24 130 8 47 24 114 35 150 11 36
20 71 20 78 0 8 7 28 14 45 18 38 66 173 71 202 3 10 11 33 19 50 33 72 56
124 56 129 0 21 162 363 214 451 20 33 39 67 43 75 34 71 248 382 349 509 165
206 521 560 698 696 50 38 96 74 102 80 6 5 22 17 34 25 12 8 50 35 84 60 52
39 196 136 261 177 11 7 36 20 55 29 19 10 47 26 62 36 14 10 33 18 42 18 9 0
16 5 16 10 0 6 6 10 14 10 8 0 31 9 53 19 21 11 54 26 73 34 19 8 51 22 72 31
20 9 41 16 47 16 6 0 19 4 29 10 9 5 33 15 52 23 36 15 100 42 135 57 11 5 38
14 60 20 22 6 49 15 60 20 20 9 80 27 275 81 268 75 491 97 984 98 379 0 394
-1 590 -29z m812 -191 c3 -5 -1 -9 -10 -9 -21 0 -46 11 -46 20 0 10 49 0 56
-11z m41 -25 c-3 -3 -12 -4 -19 -1 -8 3 -5 6 6 6 11 1 17 -2 13 -5z m-6690
-5136 c-3 -7 -5 -2 -5 12 0 14 2 19 5 13 2 -7 2 -19 0 -25z m90 -460 c1 -27
-1 -29 -7 -13 -11 27 -12 57 -2 51 5 -3 9 -20 9 -38z"/>
<path d="M14788 27403 c7 -3 16 -2 19 1 4 3 -2 6 -13 5 -11 0 -14 -3 -6 -6z"/>
<path d="M25495 28623 c-253 -14 -409 -28 -515 -44 -69 -11 -138 -21 -153 -24
-15 -2 -44 -7 -65 -10 -31 -5 -63 -12 -162 -40 -62 -17 -129 -35 -150 -39 -50
-10 -145 -38 -155 -45 -5 -4 -39 -18 -75 -31 -36 -13 -87 -33 -115 -45 -27
-13 -79 -34 -115 -48 -135 -54 -218 -102 -570 -332 -308 -202 -552 -420 -745
-665 -33 -41 -87 -107 -120 -145 -76 -87 -234 -345 -286 -468 -22 -51 -44
-101 -48 -112 -5 -11 -22 -55 -37 -98 -38 -109 -66 -115 -79 -17 -4 25 -10 57
-15 72 -5 17 -5 30 1 34 7 4 7 10 0 18 -6 7 -10 331 -10 911 -1 494 -4 902 -9
906 -4 4 -254 11 -557 14 l-550 7 30 -21 c30 -21 30 -21 7 -27 l-24 -7 6 -141
c4 -77 8 -2436 11 -5242 2 -2805 7 -5108 11 -5117 6 -15 32 -17 288 -18 154 0
389 -4 521 -8 132 -4 246 -6 253 -3 6 2 12 10 12 18 0 8 6 14 13 14 9 0 12
450 12 2218 0 2570 6 3261 30 3352 2 8 9 80 15 160 6 80 13 161 16 180 2 19
11 87 19 150 56 452 75 576 104 688 10 42 22 97 26 122 14 91 74 318 99 373
14 31 26 62 26 69 0 8 4 18 9 23 4 6 24 57 44 115 20 58 51 137 70 175 18 39
40 86 47 105 14 35 40 85 97 190 17 30 51 93 75 140 41 78 122 207 148 237 5
7 10 16 10 22 0 5 3 11 8 13 4 2 19 22 34 45 96 147 324 396 527 576 117 102
301 247 316 247 4 0 19 8 33 19 15 10 77 44 137 76 61 31 115 60 120 64 20 15
202 90 280 116 44 14 84 30 90 35 13 11 204 59 280 71 122 19 262 38 335 46
94 10 393 10 480 1 36 -5 101 -10 145 -14 126 -9 415 -64 467 -89 l46 -22 7
71 c17 187 37 377 46 436 5 36 16 110 24 165 15 98 23 157 46 345 16 138 16
138 24 151 11 17 -15 29 -65 29 -25 0 -80 7 -123 15 -200 38 -461 53 -702 38z"/>
<path d="M31865 28616 c-88 -7 -167 -15 -175 -18 -8 -4 -40 -9 -70 -12 -104
-11 -216 -25 -241 -30 -13 -3 -36 -8 -51 -10 -15 -3 -63 -11 -105 -20 -43 -8
-109 -20 -148 -26 -38 -7 -88 -18 -110 -25 -22 -8 -60 -19 -85 -25 -25 -6 -52
-14 -60 -17 -8 -3 -19 -7 -25 -9 -48 -13 -217 -66 -241 -75 -16 -7 -40 -14
-52 -16 -13 -2 -58 -19 -99 -38 -41 -19 -77 -35 -79 -35 -3 0 -51 -22 -107
-49 -56 -27 -124 -59 -152 -71 -69 -31 -468 -230 -480 -240 -5 -4 -41 -24 -80
-45 -38 -21 -77 -44 -86 -51 -8 -8 -19 -14 -23 -14 -21 0 -395 -285 -571 -436
-162 -138 -472 -453 -643 -652 -119 -139 -313 -409 -408 -569 -10 -18 -55 -90
-100 -160 -76 -121 -103 -168 -135 -238 -8 -16 -16 -32 -19 -35 -12 -12 -30
-51 -30 -65 0 -8 -4 -15 -8 -15 -5 0 -19 -24 -32 -52 -12 -29 -35 -80 -50
-113 -15 -33 -38 -87 -50 -120 -12 -33 -28 -74 -36 -90 -19 -45 -63 -168 -67
-191 -2 -10 -6 -26 -9 -34 -17 -44 -37 -134 -32 -141 3 -5 1 -9 -4 -9 -7 0
-62 -159 -68 -195 0 -5 -2 -12 -3 -15 -2 -3 -4 -12 -6 -21 -1 -9 -10 -41 -18
-70 -9 -30 -18 -67 -21 -82 -3 -16 -12 -50 -19 -75 -33 -106 -73 -337 -84
-482 -3 -41 -9 -95 -13 -120 l-8 -45 -1 49 c-2 86 -9 46 -20 -119 -17 -239
-15 -816 3 -1020 29 -317 37 -380 62 -490 25 -108 49 -228 61 -312 3 -24 10
-43 15 -43 5 0 6 -5 3 -10 -7 -11 63 -293 95 -383 11 -32 18 -68 15 -80 -5
-16 -4 -18 3 -8 12 16 25 -1 17 -21 -5 -12 39 -162 64 -223 23 -52 42 -97 76
-180 42 -99 68 -157 144 -318 28 -59 51 -109 51 -111 0 -4 89 -159 122 -211
13 -22 27 -47 30 -56 3 -8 45 -71 93 -139 93 -133 107 -153 149 -216 14 -22
34 -49 44 -60 9 -10 30 -35 46 -54 16 -19 81 -91 146 -160 137 -147 359 -393
379 -422 24 -34 342 -301 447 -376 54 -38 159 -115 233 -170 74 -54 159 -112
190 -128 31 -16 67 -36 81 -45 91 -60 200 -129 204 -129 2 0 37 -19 78 -43 40
-24 89 -51 108 -60 19 -10 42 -22 50 -27 8 -5 33 -17 55 -26 22 -10 58 -29 80
-43 22 -13 40 -23 40 -22 0 6 140 -62 165 -79 14 -10 54 -25 90 -35 36 -9 79
-23 95 -30 17 -7 53 -18 80 -25 28 -6 59 -16 70 -21 83 -36 315 -99 440 -120
93 -15 106 -17 135 -19 19 -1 21 -3 8 -8 -9 -4 20 -8 65 -10 45 -1 98 -4 117
-6 19 -2 41 -4 48 -5 6 -1 12 -6 12 -12 0 -7 -12 -10 -32 -7 -18 3 -42 2 -53
-2 -25 -9 80 -22 113 -14 12 4 22 2 22 -3 0 -12 64 -22 190 -29 52 -3 117 -9
144 -14 28 -4 60 -4 73 1 28 10 113 8 113 -4 0 -4 -18 -6 -40 -3 -22 2 -40 0
-40 -4 0 -18 102 -23 337 -17 297 8 505 30 866 93 49 8 141 20 205 26 96 8
289 50 467 101 40 12 95 31 122 43 17 8 37 14 45 14 7 0 25 6 39 14 14 7 50
19 79 26 29 7 65 19 79 26 14 8 31 14 37 14 10 0 100 40 136 60 10 6 25 10 33
10 8 0 15 5 15 10 0 6 7 10 15 10 8 0 23 4 33 10 9 5 64 32 122 60 58 27 141
70 185 95 44 25 98 55 120 66 22 11 58 31 80 45 22 13 49 29 60 34 23 11 26
14 160 100 55 35 105 68 110 72 6 4 51 38 100 75 50 36 92 69 95 73 3 4 59 49
124 99 111 86 224 178 236 192 3 3 48 43 100 89 98 85 185 172 248 250 20 25
67 81 103 125 37 44 105 132 152 195 48 63 90 120 95 126 30 35 192 272 232
339 26 44 85 143 132 220 47 77 91 155 99 173 8 17 17 32 20 32 3 0 12 18 19
40 7 22 17 40 22 40 4 0 8 6 8 13 0 7 20 53 45 103 24 49 45 93 45 97 0 5 14
38 31 75 17 37 41 90 54 117 52 118 77 171 84 185 5 9 12 31 16 50 4 19 11 40
15 45 6 9 41 134 81 295 7 25 14 52 17 60 10 27 77 382 93 490 5 36 11 77 13
92 2 15 11 60 20 100 25 120 33 174 37 266 9 190 2 864 -9 992 -7 74 -17 191
-22 260 -5 69 -21 182 -35 250 -14 69 -34 175 -45 235 -23 134 -41 220 -74
347 -14 53 -39 150 -56 215 -33 125 -58 202 -72 218 -4 5 -8 15 -8 23 0 7 -11
38 -25 68 -14 30 -25 57 -25 60 0 3 -13 35 -30 71 -16 35 -30 67 -30 70 0 9
-183 377 -190 383 -4 3 -10 12 -13 20 -4 8 -16 29 -27 45 -18 28 -29 47 -61
105 -8 14 -55 93 -104 175 -50 83 -92 155 -94 160 -5 12 -133 185 -170 231
-54 65 -61 74 -61 80 0 42 -579 639 -723 745 -128 95 -136 101 -206 155 -112
87 -233 170 -291 200 -30 15 -129 76 -220 134 -91 59 -187 118 -215 132 -79
41 -466 228 -471 228 -2 0 -37 15 -76 33 -40 19 -95 42 -123 51 -27 10 -59 22
-70 27 -134 60 -666 198 -860 223 -66 9 -165 22 -220 30 -55 9 -161 20 -234
26 -170 13 -686 10 -896 -4z m842 -1056 c168 -12 664 -112 766 -155 21 -8 42
-13 47 -10 5 3 12 0 15 -6 4 -5 13 -8 21 -5 7 3 16 1 19 -4 4 -6 -2 -10 -11
-10 -28 0 -12 -8 29 -14 42 -7 271 -80 299 -96 10 -6 23 -10 29 -10 6 0 40
-13 76 -30 35 -16 70 -30 77 -30 8 0 19 -6 25 -14 7 -8 23 -17 37 -20 14 -4
38 -15 53 -25 14 -11 69 -44 123 -75 53 -31 136 -85 185 -121 48 -36 97 -69
109 -74 35 -16 271 -208 399 -325 154 -142 199 -188 313 -316 52 -58 104 -116
116 -130 36 -40 186 -231 250 -320 66 -92 235 -368 256 -421 8 -19 16 -36 20
-39 6 -6 85 -179 121 -265 14 -35 13 -32 23 -67 5 -16 12 -28 17 -28 5 0 9 -8
9 -18 0 -11 7 -32 14 -48 8 -16 22 -54 30 -84 8 -30 26 -86 40 -125 43 -123
66 -197 92 -300 14 -55 31 -125 39 -155 8 -30 17 -71 20 -90 3 -19 14 -84 25
-145 27 -153 49 -334 61 -505 6 -80 14 -154 19 -165 13 -31 20 -96 9 -90 -5 4
-9 -3 -9 -15 0 -12 4 -19 8 -16 9 6 8 -36 -1 -51 -4 -7 -3 -14 3 -18 5 -3 10
-14 10 -23 0 -15 -2 -15 -10 -2 -5 8 -10 11 -10 5 -1 -5 -3 -59 -5 -120 -4
-95 -11 -203 -19 -310 -5 -62 -38 -261 -46 -280 -5 -11 -14 -63 -21 -115 -6
-52 -15 -99 -19 -105 -4 -5 -11 -30 -15 -55 -7 -46 -29 -146 -45 -210 -5 -19
-12 -50 -15 -69 -3 -18 -12 -49 -20 -68 -8 -20 -15 -44 -15 -54 0 -11 -5 -19
-10 -19 -6 0 -10 -6 -9 -12 2 -14 -7 -42 -22 -71 -5 -9 -25 -61 -45 -115 -36
-99 -41 -111 -67 -172 -8 -19 -22 -55 -30 -80 -8 -25 -26 -70 -40 -100 -13
-30 -27 -62 -31 -70 -3 -8 -22 -42 -41 -75 -19 -33 -40 -72 -46 -87 -6 -16
-15 -28 -21 -28 -5 0 -7 -4 -4 -9 4 -5 2 -11 -2 -13 -5 -1 -38 -50 -72 -108
-35 -58 -86 -139 -113 -180 -53 -79 -260 -359 -295 -399 -12 -12 -51 -57 -88
-100 -90 -102 -315 -324 -433 -425 -92 -80 -291 -229 -348 -261 -16 -9 -47
-28 -70 -43 -167 -109 -261 -162 -418 -239 -49 -24 -98 -48 -107 -53 -10 -6
-22 -10 -27 -10 -5 0 -22 -5 -38 -12 -15 -6 -33 -12 -38 -13 -6 -2 -31 -12
-55 -22 -25 -11 -70 -28 -100 -39 -30 -10 -59 -21 -65 -24 -5 -4 -57 -21 -115
-39 -58 -18 -114 -37 -125 -41 -22 -9 -246 -53 -359 -70 -38 -6 -72 -13 -76
-15 -10 -6 -390 -43 -520 -50 -122 -7 -466 9 -547 25 -26 5 -113 17 -193 26
-142 16 -317 47 -442 79 -111 29 -380 121 -483 165 -22 9 -74 30 -115 46 -76
29 -102 42 -265 129 -263 141 -615 407 -974 733 -204 187 -482 534 -607 759
-16 29 -32 53 -36 53 -5 0 -8 5 -8 11 0 7 -23 50 -52 98 -129 214 -202 372
-259 554 -13 42 -27 77 -32 77 -4 0 -6 4 -3 9 3 5 0 24 -8 42 -7 19 -17 43
-21 54 -5 11 -9 22 -10 25 -1 3 -4 12 -7 20 -73 194 -166 541 -198 740 -37
224 -39 242 -45 460 -3 118 -9 244 -12 280 -4 36 -6 72 -4 80 7 41 8 89 1 85
-4 -3 -4 12 1 33 4 21 4 41 -1 46 -5 5 -5 18 0 30 4 12 11 67 14 122 21 363
27 421 51 531 32 142 78 329 99 398 9 28 26 87 38 132 13 45 27 85 31 89 4 4
7 16 7 28 0 11 9 40 21 65 12 25 31 69 44 96 12 28 39 85 59 127 20 43 36 80
36 83 0 5 9 26 67 155 46 102 88 185 95 188 5 2 8 9 8 15 0 7 23 47 50 90 28
43 50 82 50 88 0 5 4 9 8 9 5 0 16 15 24 34 14 27 104 161 136 201 4 6 41 53
82 105 41 52 77 97 80 100 3 3 60 70 127 150 130 155 272 298 392 395 41 33
91 74 110 91 47 40 210 164 216 164 2 0 17 12 32 26 42 40 143 104 278 178 11
6 22 13 25 16 6 6 318 160 370 183 19 8 51 18 70 22 19 4 40 11 45 15 6 4 48
20 95 35 47 15 105 37 130 48 25 11 68 26 95 34 28 8 59 18 70 23 36 16 212
59 347 84 73 14 149 30 168 36 31 9 178 22 390 34 98 6 497 -3 647 -14z
m-2393 -9509 c4 -5 -3 -7 -14 -4 -23 6 -26 13 -6 13 8 0 17 -4 20 -9z m1751
-381 c-3 -5 -10 -10 -16 -10 -5 0 -9 5 -9 10 0 6 7 10 16 10 8 0 12 -4 9 -10z
m42 4 c-3 -3 -12 -4 -19 -1 -8 3 -5 6 6 6 11 1 17 -2 13 -5z"/>
<path d="M44100 28619 c-69 -5 -179 -18 -245 -28 -66 -11 -138 -22 -160 -25
-324 -44 -517 -80 -695 -132 -69 -20 -156 -45 -195 -56 -38 -11 -89 -29 -112
-39 -23 -10 -49 -19 -57 -19 -9 0 -16 -4 -16 -8 0 -4 -20 -13 -45 -20 -25 -7
-45 -16 -45 -22 0 -5 -5 -10 -11 -10 -11 0 -43 -13 -135 -56 -28 -13 -54 -24
-58 -24 -4 0 -57 -24 -119 -54 -62 -29 -115 -55 -119 -56 -38 -10 -241 -125
-442 -251 -260 -162 -364 -239 -624 -461 -30 -27 -60 -48 -67 -48 -13 0 -153
-127 -265 -240 -100 -101 -290 -313 -386 -430 -61 -75 -309 -433 -359 -518 -5
-9 -19 -30 -30 -47 -11 -16 -25 -39 -31 -50 -33 -60 -68 -121 -74 -130 -4 -5
-31 -55 -60 -110 -29 -55 -76 -145 -106 -201 -45 -84 -107 -221 -118 -259 -2
-5 -13 -32 -26 -60 -12 -27 -30 -68 -40 -90 -22 -48 -82 -230 -100 -300 -7
-27 -17 -55 -21 -60 -4 -6 -10 -22 -12 -35 -2 -14 -7 -32 -10 -40 -14 -36 -96
-376 -107 -445 -15 -96 -41 -241 -57 -320 -8 -44 -17 -132 -20 -195 -2 -63 -8
-124 -13 -135 -17 -41 -33 -523 -21 -665 6 -74 15 -228 21 -342 6 -113 17
-251 26 -305 8 -54 17 -111 20 -128 9 -72 26 -173 34 -205 5 -19 14 -64 21
-100 7 -36 15 -69 18 -75 8 -14 11 -32 15 -85 5 -67 17 -111 29 -103 6 3 7 1
3 -6 -4 -6 -2 -18 4 -26 6 -8 13 -24 15 -37 7 -39 30 -117 38 -124 4 -4 7 -18
7 -31 0 -13 4 -22 8 -19 4 2 8 -3 9 -12 3 -40 36 -151 77 -255 24 -61 50 -129
57 -149 7 -20 17 -34 22 -31 6 3 7 1 3 -5 -3 -6 6 -39 21 -74 30 -69 120 -246
135 -265 6 -7 24 -39 40 -70 30 -59 84 -156 125 -228 12 -22 36 -65 53 -95 34
-62 30 -55 126 -205 39 -60 78 -123 87 -140 8 -16 24 -39 34 -50 16 -17 196
-231 331 -395 99 -119 468 -474 483 -464 4 2 9 0 11 -4 4 -11 116 -104 239
-200 146 -113 183 -139 235 -168 27 -15 86 -52 132 -83 77 -52 176 -111 212
-128 8 -3 29 -16 45 -29 34 -24 101 -62 220 -122 71 -36 115 -56 205 -94 58
-24 96 -41 113 -49 10 -6 22 -7 27 -4 6 4 10 2 10 -2 0 -13 98 -61 150 -73 25
-6 68 -20 97 -31 29 -12 57 -18 62 -14 6 3 11 1 11 -4 0 -6 10 -11 23 -11 12
0 35 -7 51 -15 15 -8 32 -12 37 -9 5 3 24 -2 42 -11 58 -30 160 -64 242 -80
71 -15 122 -35 87 -35 -7 0 -12 -5 -12 -11 0 -7 10 -5 25 5 30 20 39 20 32 2
-5 -11 4 -14 40 -11 29 2 41 0 32 -6 -9 -5 15 -9 64 -10 42 -1 80 -2 85 -3 4
-1 32 -6 62 -10 30 -4 71 -11 90 -16 19 -5 55 -11 80 -14 25 -3 72 -10 105
-16 147 -26 919 -50 1049 -31 44 6 122 16 171 22 108 12 158 20 166 24 3 2 36
5 75 6 38 1 74 6 80 11 7 5 27 10 45 12 19 2 54 6 79 10 25 4 59 8 75 9 17 2
35 6 41 9 5 4 38 12 74 18 163 31 406 94 417 109 6 9 15 13 19 9 4 -4 13 -3
20 3 14 12 101 37 150 44 17 3 44 12 60 20 16 8 37 15 46 15 9 0 19 4 23 9 3
5 20 13 38 16 30 7 386 181 397 195 3 3 21 14 40 23 19 10 51 27 70 39 48 29
149 83 244 130 43 22 84 44 90 50 10 8 178 121 214 143 22 14 32 21 67 50 17
14 48 38 70 53 22 15 42 29 45 32 3 3 48 39 100 80 338 263 661 595 930 955
174 233 368 523 431 645 19 36 37 67 42 68 4 2 7 9 7 16 0 6 22 57 49 111 27
55 59 129 71 165 12 36 25 67 28 70 8 6 32 65 39 98 3 12 9 22 14 22 5 0 9 7
9 15 0 8 4 23 10 33 5 9 15 33 23 52 8 19 27 62 42 95 15 33 28 65 30 70 1 6
5 17 8 25 10 26 95 303 106 345 45 179 73 314 92 443 6 45 15 82 20 82 5 0 9
10 9 23 -1 12 6 60 14 107 9 47 22 139 31 205 8 66 20 152 26 190 16 103 23
706 10 855 -28 326 -56 537 -87 665 -12 52 -37 169 -64 300 -5 22 -18 76 -30
120 -12 44 -35 130 -51 190 -42 155 -96 322 -144 440 -4 11 -9 25 -11 32 -1 6
-20 51 -43 98 -23 48 -41 89 -41 92 0 2 -20 46 -45 97 -25 52 -45 99 -45 105
0 6 -11 29 -25 51 -14 22 -22 40 -19 40 4 0 -5 15 -20 34 -14 19 -26 41 -26
49 0 8 -9 26 -20 40 -11 14 -20 32 -20 41 0 9 -4 16 -10 16 -5 0 -9 3 -8 8 2
6 -20 51 -47 94 -5 9 -61 91 -122 182 -62 92 -113 169 -113 172 0 9 -138 193
-194 259 -90 106 -381 417 -467 500 -118 113 -265 237 -399 338 -63 47 -159
119 -212 159 -308 233 -747 485 -1085 624 -258 106 -688 235 -928 279 -164 30
-554 84 -678 95 -148 12 -584 11 -767 -1z m741 -1059 c138 -10 311 -36 340
-50 19 -10 109 -27 189 -36 30 -3 59 -10 65 -15 5 -5 19 -9 31 -9 13 0 35 -5
51 -12 15 -6 32 -10 37 -9 4 1 18 -2 30 -5 21 -7 20 -8 -4 -16 -19 -6 -17 -7
13 -3 20 2 35 0 32 -5 -3 -4 5 -6 17 -2 21 5 22 4 9 -11 -11 -14 -11 -17 0
-18 8 0 28 -3 44 -6 17 -3 40 -5 53 -5 12 0 22 -4 22 -9 0 -4 60 -26 133 -49
72 -23 148 -47 167 -55 19 -7 42 -16 50 -19 8 -3 22 -10 30 -15 8 -5 82 -42
163 -82 82 -39 151 -78 154 -85 3 -8 10 -11 15 -8 6 4 13 2 17 -3 3 -6 29 -22
56 -38 28 -15 82 -51 121 -81 39 -30 74 -54 78 -54 7 0 326 -238 336 -250 3
-4 32 -28 65 -55 128 -103 182 -154 284 -271 277 -316 433 -532 609 -843 14
-25 38 -67 54 -94 33 -56 164 -320 192 -387 10 -25 25 -61 33 -80 8 -19 19
-43 24 -53 5 -10 7 -22 4 -27 -4 -6 -1 -10 4 -10 6 0 11 -8 11 -18 0 -10 4
-22 9 -28 23 -26 140 -407 161 -526 8 -42 17 -75 21 -73 7 5 19 -79 19 -137 0
-20 5 -40 12 -44 8 -5 9 4 5 32 -4 24 -3 33 2 24 13 -21 31 -216 31 -324 0
-53 4 -85 9 -78 8 13 23 -340 24 -578 1 -185 -13 -381 -34 -499 -10 -58 -20
-130 -20 -160 -1 -31 -5 -69 -9 -86 l-8 -30 -2 35 -2 35 -9 -35 c-4 -19 -9
-51 -10 -70 -2 -19 -6 -37 -9 -40 -4 -3 -14 -45 -23 -95 -21 -119 -53 -254
-76 -318 -10 -29 -16 -58 -14 -64 3 -7 0 -13 -5 -13 -5 0 -17 -26 -27 -57 -10
-32 -26 -77 -36 -101 -10 -23 -18 -45 -18 -47 0 -3 -7 -18 -15 -33 -8 -15 -24
-52 -36 -82 -11 -30 -25 -64 -30 -75 -16 -39 -161 -331 -181 -365 -40 -70 -53
-95 -51 -102 1 -5 -2 -8 -7 -8 -5 0 -13 -10 -16 -22 -4 -13 -18 -37 -31 -55
-13 -17 -24 -36 -24 -41 0 -6 -4 -12 -8 -14 -5 -1 -32 -43 -61 -91 -28 -49
-70 -113 -91 -142 -22 -30 -40 -58 -40 -64 0 -5 -3 -11 -7 -13 -5 -1 -28 -28
-53 -58 -302 -373 -465 -537 -755 -757 -293 -222 -472 -343 -600 -406 -22 -11
-56 -30 -75 -42 -19 -12 -39 -23 -45 -25 -21 -5 -62 -22 -120 -49 -33 -16 -72
-31 -88 -35 -15 -4 -52 -18 -82 -31 -29 -14 -60 -25 -68 -25 -7 0 -17 -3 -21
-7 -4 -5 -11 -8 -14 -9 -4 0 -14 -3 -22 -7 -41 -16 -96 -31 -107 -29 -6 1 -14
-2 -18 -8 -3 -5 -12 -10 -20 -10 -8 0 -26 -5 -42 -12 -39 -16 -55 -20 -78 -19
-11 0 -50 -8 -86 -19 -87 -26 -268 -56 -421 -70 -68 -6 -145 -15 -173 -20
-139 -25 -271 -33 -500 -27 -330 8 -474 27 -860 112 -189 42 -460 123 -517
155 -10 6 -23 10 -30 10 -7 1 -31 9 -53 20 -22 11 -45 19 -51 20 -5 0 -34 11
-62 25 -29 14 -59 25 -67 25 -8 0 -15 5 -15 10 0 6 -6 10 -12 10 -38 1 -377
197 -473 273 -5 4 -68 46 -138 92 -169 112 -285 201 -434 336 -169 154 -248
242 -543 616 -6 7 -10 15 -10 18 0 3 -22 36 -49 73 -27 37 -58 85 -69 106 -12
22 -25 42 -30 45 -8 6 -48 76 -120 211 -19 36 -52 99 -75 140 -64 119 -91 178
-154 345 -25 65 -30 78 -47 117 -9 20 -16 42 -16 50 0 7 -6 25 -14 39 -14 28
-56 151 -77 229 -15 55 -14 52 -22 70 -19 45 -79 317 -101 460 -54 352 -61
457 -61 885 1 420 11 583 47 760 11 55 26 141 33 190 11 77 36 178 57 235 8
21 36 106 53 160 24 79 52 154 74 202 11 26 21 51 21 56 0 5 7 23 15 38 8 16
15 37 15 46 0 9 4 19 9 22 5 3 12 18 15 33 4 16 15 46 25 68 11 22 33 71 51
108 17 37 45 91 62 120 17 29 54 95 81 147 28 52 62 113 76 134 14 21 31 47
37 57 6 11 14 16 17 13 4 -4 11 5 16 20 31 80 254 380 402 541 26 27 69 77 96
110 118 141 443 422 638 551 33 22 104 70 157 107 53 37 99 67 103 67 3 0 21
11 38 24 18 14 55 36 82 50 28 15 57 30 65 35 51 28 72 38 129 68 36 18 69 37
75 42 6 5 31 14 55 21 24 6 51 15 60 20 72 37 138 62 167 63 18 1 34 5 34 10
0 4 9 6 20 2 15 -5 18 -3 14 9 -5 12 1 14 28 10 18 -3 44 -1 58 5 24 9 24 10
-8 10 -45 1 -32 18 21 26 23 3 74 15 112 25 112 29 376 89 425 95 25 4 72 13
106 21 33 8 112 18 175 23 166 12 653 13 810 1z m-4267 -715 c-3 -7 -12 -11
-20 -8 -17 6 -18 20 -1 26 18 6 27 -1 21 -18z m-1287 -5187 c-3 -8 -6 -5 -6 6
-1 11 2 17 5 13 3 -3 4 -12 1 -19z m5763 -2918 c0 -6 -23 -9 -52 -8 l-53 1 50
7 c28 4 51 8 53 8 1 1 2 -2 2 -8z"/>
<path d="M20943 28080 c0 -41 2 -58 4 -37 2 20 2 54 0 75 -2 20 -4 3 -4 -38z"/>
<path d="M42858 17883 c6 -2 18 -2 25 0 6 3 1 5 -13 5 -14 0 -19 -2 -12 -5z"/>
<path d="M31300 17740 c8 -5 22 -9 30 -9 10 0 8 3 -5 9 -27 12 -43 12 -25 0z"/>
<path d="M27650 15539 c-140 -3 -288 -7 -327 -8 -40 0 -73 -5 -73 -10 0 -5 15
-31 34 -57 19 -27 49 -76 67 -109 17 -33 38 -64 46 -68 8 -5 23 -22 33 -39 10
-17 57 -73 105 -125 61 -65 92 -92 104 -88 20 6 139 -105 133 -125 -3 -7 0
-10 6 -6 13 8 92 -39 92 -54 0 -6 5 -10 10 -10 10 0 65 -35 155 -97 65 -46
110 -70 123 -65 7 2 19 -1 27 -8 7 -6 26 -15 42 -19 15 -4 28 -14 28 -22 0 -9
10 -13 28 -12 15 1 27 -2 27 -6 0 -5 8 -11 18 -14 9 -2 26 -8 37 -12 16 -5 17
-5 5 4 -8 6 -10 11 -4 11 6 0 22 -8 35 -18 36 -27 116 -64 144 -66 14 0 25 -5
25 -9 0 -5 8 -6 19 -2 10 3 26 2 36 -2 18 -6 18 -7 -1 -15 -13 -6 -9 -7 14 -3
20 3 31 1 27 -5 -3 -6 2 -10 12 -11 10 0 27 -3 38 -5 11 -3 27 -7 35 -8 8 -2
23 -7 33 -11 10 -4 20 -5 23 -2 3 2 24 -1 48 -8 23 -7 82 -16 132 -20 49 -4
98 -10 109 -14 11 -3 1195 -6 2630 -7 l2610 -1 175 -22 c162 -21 271 -44 410
-86 30 -9 62 -17 70 -19 8 -2 29 -9 45 -17 17 -7 35 -14 40 -15 6 -1 15 -3 20
-4 6 -2 15 -4 20 -5 6 -1 17 -4 25 -8 8 -3 27 -8 41 -11 14 -3 42 -16 61 -30
20 -13 47 -27 59 -31 13 -4 32 -14 42 -23 9 -8 17 -12 17 -7 0 4 7 2 15 -5 8
-6 19 -9 24 -6 5 4 13 0 18 -7 9 -15 127 -107 137 -107 4 0 31 -18 60 -40 29
-22 56 -40 61 -40 4 0 32 -20 61 -45 28 -25 56 -45 60 -45 20 0 124 -93 175
-157 128 -161 297 -460 286 -505 -4 -13 -1 -18 7 -15 7 3 17 -8 23 -24 6 -16
8 -29 3 -29 -4 0 -11 10 -15 23 -3 12 -9 17 -11 10 -3 -6 3 -27 12 -45 9 -18
23 -62 30 -98 8 -36 23 -103 34 -150 12 -47 28 -123 37 -170 9 -47 20 -88 26
-91 16 -11 2 -691 -17 -824 -14 -100 -73 -304 -120 -420 -9 -22 -21 -49 -25
-60 -5 -11 -16 -37 -25 -58 -9 -21 -14 -43 -11 -48 4 -5 2 -9 -2 -9 -5 0 -37
-55 -72 -122 -79 -156 -91 -175 -158 -267 -62 -84 -367 -391 -429 -432 -126
-83 -209 -133 -284 -171 -47 -23 -88 -46 -91 -51 -3 -5 -10 -9 -15 -9 -12 0
-43 -13 -98 -38 -25 -11 -52 -20 -60 -20 -8 0 -17 -4 -21 -9 -3 -5 -20 -13
-37 -17 -18 -3 -39 -10 -48 -15 -20 -11 -240 -82 -265 -86 -11 -2 -63 -13
-115 -24 -121 -27 -135 -29 -261 -37 l-104 -7 -7 -45 c-4 -25 -7 -262 -6 -528
0 -425 2 -484 15 -489 16 -6 254 12 358 28 184 27 394 68 433 84 9 4 51 15 92
25 163 40 271 73 347 106 17 8 36 14 42 14 6 0 19 4 29 9 9 6 44 22 77 37 98
43 357 173 400 199 22 14 47 28 55 32 8 4 20 11 25 15 6 5 98 72 205 151 314
229 633 559 809 840 24 37 47 67 52 67 6 0 8 4 4 10 -3 5 5 26 18 47 13 21 44
76 69 123 25 47 55 101 66 120 24 42 64 120 86 173 9 20 22 52 30 70 8 17 17
49 21 70 4 20 11 37 15 37 4 0 17 33 30 73 12 39 26 82 31 95 5 13 9 34 9 47
0 13 4 26 9 29 4 3 11 25 14 49 4 25 20 100 37 168 17 68 33 142 36 164 3 22
12 90 20 150 9 62 18 218 21 360 6 279 -12 529 -48 667 -11 43 -26 117 -35
164 -8 48 -26 134 -40 193 -14 58 -28 115 -30 126 -9 48 -29 103 -35 99 -4 -2
-10 12 -13 31 -4 19 -13 47 -21 62 -8 15 -15 31 -15 34 0 4 -7 23 -15 43 -8
20 -15 37 -14 38 1 2 -28 59 -63 128 -58 111 -82 156 -144 265 -9 17 -81 116
-159 220 -171 229 -383 450 -515 539 -47 31 -143 97 -215 147 -110 76 -372
219 -402 219 -5 0 -32 11 -59 25 -27 14 -56 25 -65 25 -8 0 -19 4 -25 8 -31
27 -345 129 -484 157 -36 7 -132 27 -215 43 -319 65 -233 63 -2712 61 -1237 0
-2288 -2 -2338 -3 -174 -4 -738 25 -788 40 -27 8 -126 19 -220 25 -209 12
-918 16 -1267 8z m890 -999 c0 -5 -4 -10 -10 -10 -5 0 -10 5 -10 10 0 6 5 10
10 10 6 0 10 -4 10 -10z m5640 -4749 c0 -6 -4 -13 -10 -16 -5 -3 -10 1 -10 9
0 9 5 16 10 16 6 0 10 -4 10 -9z m-13 -973 c-3 -8 -6 -5 -6 6 -1 11 2 17 5 13
3 -3 4 -12 1 -19z"/>
<path d="M27640 15021 c0 -5 19 -25 43 -45 57 -50 65 -56 73 -56 4 0 -19 25
-51 55 -59 57 -65 61 -65 46z"/>
<path d="M28218 14633 c7 -3 16 -2 19 1 4 3 -2 6 -13 5 -11 0 -14 -3 -6 -6z"/>
<path d="M51345 10 c-3 -5 -1 -10 4 -10 6 0 11 5 11 10 0 6 -2 10 -4 10 -3 0
-8 -4 -11 -10z"/>
</g>
</svg>
